<svg width="41" height="40" viewBox="0 0 41 40" fill="none" xmlns="http://www.w3.org/2000/svg">
<rect x="0.5" width="40" height="40" rx="20" fill="white" fill-opacity="0.1"/>
<path d="M27.7666 16.168C28.0947 17.3164 28.0947 19.7773 28.0947 19.7773C28.0947 19.7773 28.0947 22.2109 27.7666 23.3867C27.6025 24.043 27.083 24.5352 26.4541 24.6992C25.2783 25 20.6299 25 20.6299 25C20.6299 25 15.9541 25 14.7783 24.6992C14.1494 24.5352 13.6299 24.043 13.4658 23.3867C13.1377 22.2109 13.1377 19.7773 13.1377 19.7773C13.1377 19.7773 13.1377 17.3164 13.4658 16.168C13.6299 15.5117 14.1494 14.9922 14.7783 14.8281C15.9541 14.5 20.6299 14.5 20.6299 14.5C20.6299 14.5 25.2783 14.5 26.4541 14.8281C27.083 14.9922 27.6025 15.5117 27.7666 16.168ZM19.0986 21.9922L22.9814 19.7773L19.0986 17.5625V21.9922Z" fill="white"/>
</svg>
