<svg width="41" height="40" viewBox="0 0 41 40" fill="none" xmlns="http://www.w3.org/2000/svg">
<rect x="0.5" width="40" height="40" rx="20" fill="white" fill-opacity="0.1"/>
<path d="M26.0508 16.9062C26.0508 17.043 26.0508 17.1523 26.0508 17.2891C26.0508 21.0898 23.1797 25.4375 17.9023 25.4375C16.2617 25.4375 14.7578 24.9727 13.5 24.1523C13.7188 24.1797 13.9375 24.207 14.1836 24.207C15.5234 24.207 16.7539 23.7422 17.7383 22.9766C16.4805 22.9492 15.4141 22.1289 15.0586 20.9805C15.25 21.0078 15.4141 21.0352 15.6055 21.0352C15.8516 21.0352 16.125 20.9805 16.3438 20.9258C15.0312 20.6523 14.0469 19.5039 14.0469 18.1094V18.082C14.4297 18.3008 14.8945 18.4102 15.3594 18.4375C14.5664 17.918 14.0742 17.043 14.0742 16.0586C14.0742 15.5117 14.2109 15.0195 14.457 14.6094C15.8789 16.332 18.0117 17.4805 20.3906 17.6172C20.3359 17.3984 20.3086 17.1797 20.3086 16.9609C20.3086 15.375 21.5938 14.0898 23.1797 14.0898C24 14.0898 24.7383 14.418 25.2852 14.9922C25.9141 14.8555 26.543 14.6094 27.0898 14.2812C26.8711 14.9648 26.4336 15.5117 25.832 15.8672C26.4062 15.8125 26.9805 15.6484 27.4727 15.4297C27.0898 16.0039 26.5977 16.4961 26.0508 16.9062Z" fill="white"/>
</svg>
