<svg width="41" height="40" viewBox="0 0 41 40" fill="none" xmlns="http://www.w3.org/2000/svg">
<rect x="0.5" width="40" height="40" rx="20" fill="white" fill-opacity="0.1"/>
<path d="M27.2812 19.75C27.2812 23.1406 24.793 25.957 21.5391 26.4492V21.7188H23.125L23.4258 19.75H21.5391V18.4922C21.5391 17.9453 21.8125 17.4258 22.6602 17.4258H23.5078V15.7578C23.5078 15.7578 22.7422 15.6211 21.9766 15.6211C20.4453 15.6211 19.4336 16.5781 19.4336 18.2734V19.75H17.7109V21.7188H19.4336V26.4492C16.1797 25.957 13.7188 23.1406 13.7188 19.75C13.7188 16.0039 16.7539 12.9688 20.5 12.9688C24.2461 12.9688 27.2812 16.0039 27.2812 19.75Z" fill="white"/>
</svg>
