<svg width="41" height="40" viewBox="0 0 41 40" fill="none" xmlns="http://www.w3.org/2000/svg">
<rect x="0.5" width="40" height="40" rx="20" fill="white" fill-opacity="0.1"/>
<path d="M20.6758 16.6055C22.3984 16.6055 23.8203 18.0273 23.8203 19.75C23.8203 21.5 22.3984 22.8945 20.6758 22.8945C18.9258 22.8945 17.5312 21.5 17.5312 19.75C17.5312 18.0273 18.9258 16.6055 20.6758 16.6055ZM20.6758 21.8008C21.7969 21.8008 22.6992 20.8984 22.6992 19.75C22.6992 18.6289 21.7969 17.7266 20.6758 17.7266C19.5273 17.7266 18.625 18.6289 18.625 19.75C18.625 20.8984 19.5547 21.8008 20.6758 21.8008ZM24.668 16.4961C24.668 16.9062 24.3398 17.2344 23.9297 17.2344C23.5195 17.2344 23.1914 16.9062 23.1914 16.4961C23.1914 16.0859 23.5195 15.7578 23.9297 15.7578C24.3398 15.7578 24.668 16.0859 24.668 16.4961ZM26.7461 17.2344C26.8008 18.2461 26.8008 21.2812 26.7461 22.293C26.6914 23.2773 26.4727 24.125 25.7617 24.8633C25.0508 25.5742 24.1758 25.793 23.1914 25.8477C22.1797 25.9023 19.1445 25.9023 18.1328 25.8477C17.1484 25.793 16.3008 25.5742 15.5625 24.8633C14.8516 24.125 14.6328 23.2773 14.5781 22.293C14.5234 21.2812 14.5234 18.2461 14.5781 17.2344C14.6328 16.25 14.8516 15.375 15.5625 14.6641C16.3008 13.9531 17.1484 13.7344 18.1328 13.6797C19.1445 13.625 22.1797 13.625 23.1914 13.6797C24.1758 13.7344 25.0508 13.9531 25.7617 14.6641C26.4727 15.375 26.6914 16.25 26.7461 17.2344ZM25.4336 23.3594C25.7617 22.5664 25.6797 20.6523 25.6797 19.75C25.6797 18.875 25.7617 16.9609 25.4336 16.1406C25.2148 15.6211 24.8047 15.1836 24.2852 14.9922C23.4648 14.6641 21.5508 14.7461 20.6758 14.7461C19.7734 14.7461 17.8594 14.6641 17.0664 14.9922C16.5195 15.2109 16.1094 15.6211 15.8906 16.1406C15.5625 16.9609 15.6445 18.875 15.6445 19.75C15.6445 20.6523 15.5625 22.5664 15.8906 23.3594C16.1094 23.9062 16.5195 24.3164 17.0664 24.5352C17.8594 24.8633 19.7734 24.7812 20.6758 24.7812C21.5508 24.7812 23.4648 24.8633 24.2852 24.5352C24.8047 24.3164 25.2422 23.9062 25.4336 23.3594Z" fill="white"/>
</svg>
