<svg width="24" height="24" viewBox="0 0 24 24" fill="none" xmlns="http://www.w3.org/2000/svg">
<g clip-path="url(#clip0_3_394)">
<path d="M11.9988 9C12.2331 9.00229 12.4251 9.192 12.4251 9.42857V10.2857H12.856C14.0348 10.2857 14.9988 11.248 14.9988 12.4263C14.9988 12.6629 14.8091 12.8571 14.5703 12.8571C14.3337 12.8594 14.1394 12.6651 14.1417 12.4263C14.1417 11.712 13.5703 11.1429 12.856 11.1429H11.1417C10.4274 11.1429 9.85826 11.712 9.85826 12.4263V13.2857C9.85826 14 10.4274 14.5714 11.1417 14.5714H12.856C14.0348 14.5714 14.9988 15.536 14.9988 16.7143V17.5714C14.9988 18.7503 14.0348 19.7143 12.856 19.7143H12.4251V20.5714C12.4274 20.808 12.2354 21 11.9988 21C11.76 21.0023 11.568 20.808 11.568 20.5714V19.7143H11.1417C9.9634 19.7143 8.99883 18.7503 8.99883 17.5714C9.00112 17.3349 9.19083 17.1451 9.4274 17.1451C9.66397 17.1429 9.85597 17.3349 9.85826 17.5714C9.85826 18.2857 10.4274 18.8549 11.1417 18.8549H12.856C13.5703 18.8549 14.1417 18.2857 14.1417 17.5714V16.7143C14.1417 16 13.5703 15.4286 12.856 15.4286H11.1417C9.9634 15.4286 8.99883 14.4646 8.99883 13.2857V12.4263C8.99883 11.248 9.9634 10.2857 11.1417 10.2857H11.568V9.42857C11.5703 9.192 11.7623 9 11.9988 9ZM9.4274 0C8.72226 0 8.14169 0.580571 8.14169 1.28571V3C8.14169 3.95771 8.59712 4.81486 9.29997 5.364C5.93197 6.192 3.42969 9.23657 3.42969 12.8571V20.1429C3.42969 22.268 5.1594 24 7.28454 24H16.7131C18.8383 24 20.5703 22.268 20.5703 20.1429V12.8571C20.5703 9.23657 18.0657 6.192 14.6977 5.364C15.4005 4.81486 15.856 3.95771 15.856 3V1.28571C15.856 0.580571 15.2754 0 14.5703 0L9.4274 0Z" fill="#009F0B"/>
</g>
<defs>
<clipPath id="clip0_3_394">
<rect width="24" height="24" fill="white"/>
</clipPath>
</defs>
</svg>
