<svg width="28" height="28" viewBox="0 0 28 28" fill="none" xmlns="http://www.w3.org/2000/svg">
<path fill-rule="evenodd" clip-rule="evenodd" d="M25.4241 7.46766C25.4125 7.95066 25.0123 8.33333 24.5293 8.32283C24.0463 8.31116 23.6636 7.91099 23.6741 7.42799L23.722 5.32099L21.6161 5.27316C21.1331 5.26149 20.7505 4.86133 20.761 4.37833C20.7726 3.89533 21.1728 3.51266 21.6558 3.52316L24.6378 3.59199C25.1208 3.60249 25.5035 4.00266 25.4918 4.48566L25.4241 7.46766Z" fill="#009F0B"/>
<path fill-rule="evenodd" clip-rule="evenodd" d="M6.79784 10.9037V25.0682C6.79784 25.8825 6.13867 26.5417 5.32434 26.5417H2.93151C2.11717 26.5417 1.45801 25.8825 1.45801 25.0682V10.9037C1.45801 10.0905 2.11717 9.43018 2.93151 9.43018H5.32434C6.13867 9.43018 6.79784 10.0905 6.79784 10.9037Z" fill="#009F0B"/>
<path fill-rule="evenodd" clip-rule="evenodd" d="M19.9599 18.0834V25.0682C19.9599 25.459 19.8048 25.8335 19.5283 26.11C19.2518 26.3865 18.8773 26.5417 18.4865 26.5417H16.0936C15.7028 26.5417 15.3283 26.3865 15.0518 26.11C14.7753 25.8335 14.6201 25.459 14.6201 25.0682V18.0834C14.6201 17.6925 14.7753 17.318 15.0518 17.0415C15.3283 16.765 15.7028 16.6099 16.0936 16.6099H18.4865C18.8773 16.6099 19.2518 16.765 19.5283 17.0415C19.8048 17.318 19.9599 17.6925 19.9599 18.0834Z" fill="#009F0B"/>
<path fill-rule="evenodd" clip-rule="evenodd" d="M13.3789 14.4935V25.0682C13.3789 25.8825 12.7197 26.5417 11.9054 26.5417H9.51256C8.69823 26.5417 8.03906 25.8825 8.03906 25.0682V14.4935C8.03906 14.1027 8.19423 13.7282 8.47073 13.4517C8.74723 13.1752 9.12173 13.02 9.51256 13.02H11.9054C12.7197 13.02 13.3789 13.6804 13.3789 14.4935Z" fill="#009F0B"/>
<path fill-rule="evenodd" clip-rule="evenodd" d="M26.541 14.4935V25.0682C26.541 25.8825 25.8818 26.5417 25.0675 26.5417H22.6747C21.8603 26.5417 21.2012 25.8825 21.2012 25.0682V14.4935C21.2012 14.1027 21.3563 13.7282 21.6328 13.4517C21.9093 13.1752 22.2838 13.02 22.6747 13.02H25.0675C25.8818 13.02 26.541 13.6804 26.541 14.4935Z" fill="#009F0B"/>
<path fill-rule="evenodd" clip-rule="evenodd" d="M2.85832 3.03316C2.47098 2.74382 2.39282 2.19432 2.68332 1.80816C2.97265 1.42199 3.52098 1.34382 3.90832 1.63316L10.8535 6.84232H14.1517C14.4212 6.84232 14.6743 6.96599 14.84 7.17716L17.5082 10.5733L23.6915 4.12049C24.0252 3.77166 24.5793 3.75999 24.9282 4.09482C25.277 4.42849 25.2887 4.98266 24.955 5.33149L18.074 12.5112C17.899 12.6943 17.6528 12.7923 17.3997 12.7795C17.1465 12.7678 16.9108 12.6453 16.7545 12.4458L13.727 8.59232H10.5618C10.3728 8.59232 10.1885 8.53165 10.0368 8.41732L2.85832 3.03316Z" fill="#009F0B"/>
</svg>
