<svg width="11" height="12" viewBox="0 0 11 12" fill="none" xmlns="http://www.w3.org/2000/svg">
<path d="M9.75524 4.29375L7.0278 3.89737L5.80856 1.42559C5.77526 1.35791 5.72047 1.30313 5.6528 1.26983C5.48307 1.18604 5.27682 1.25586 5.19196 1.42559L3.97272 3.89737L1.24528 4.29375C1.17008 4.3045 1.10133 4.33995 1.04869 4.39366C0.985059 4.45906 0.949994 4.54706 0.951202 4.6383C0.952411 4.72955 0.989795 4.81658 1.05514 4.88028L3.02848 6.8042L2.56227 9.5209C2.55134 9.5841 2.55833 9.64909 2.58245 9.70852C2.60658 9.76794 2.64688 9.81942 2.69877 9.85711C2.75066 9.8948 2.81207 9.91719 2.87605 9.92175C2.94002 9.92631 3.00399 9.91286 3.06071 9.88291L5.50026 8.6003L7.93981 9.88291C8.00641 9.91836 8.08375 9.93018 8.15787 9.91729C8.34479 9.88506 8.47047 9.70782 8.43824 9.5209L7.97203 6.8042L9.94537 4.88028C9.99908 4.82764 10.0345 4.75889 10.0453 4.6837C10.0743 4.49571 9.94322 4.32168 9.75524 4.29375V4.29375Z" fill="#F7CE5B"/>
</svg>
