<svg width="28" height="28" viewBox="0 0 28 28" fill="none" xmlns="http://www.w3.org/2000/svg">
<g clip-path="url(#clip0_3_371)">
<path d="M25.5391 13.1797V14.8203C25.9917 14.8203 26.3594 15.188 26.3594 15.6406C26.3594 16.6081 26.0424 16.7448 24.4327 17.1172C22.7887 10.6038 14.7436 10.0431 7.98224 11.281C7.51205 10.3631 6.44971 9.89844 4.80994 9.89844H3.3447L3.33594 15.1615C2.97235 15.5742 2.61966 16.0091 2.38019 16.4609H0V21.3828H2.38104C3.05161 22.6372 4.21713 23.8128 5.73044 24.6515L6.84619 28H11.5391V26.2808C12.6909 26.3882 13.7518 26.3795 14.8203 26.2912V28H19.5132L20.6353 24.6337C23.1644 23.2415 24.6641 21.0912 24.6641 18.9219C24.6641 18.8644 24.6557 18.8082 24.6544 18.751L24.7715 18.7232C26.3318 18.3635 28 17.9911 28 15.6406C28 14.2837 26.896 13.1797 25.5391 13.1797ZM8.25781 18.1016H6.61719V16.4609H8.25781V18.1016ZM15.6406 16.4609H10.7188V14.8203H15.6406V16.4609Z" fill="#009F0B"/>
<path d="M8.25781 4.97656C8.25781 7.69064 10.4656 9.89844 13.1797 9.89844C15.8938 9.89844 18.1016 7.69064 18.1016 4.97656C18.1016 2.26248 15.8938 0 13.1797 0C10.4656 0 8.25781 2.26248 8.25781 4.97656ZM14 6.61719H12.3594V3.33594H14V6.61719Z" fill="#009F0B"/>
</g>
<defs>
<clipPath id="clip0_3_371">
<rect width="28" height="28" fill="white"/>
</clipPath>
</defs>
</svg>
