<svg width="24" height="24" viewBox="0 0 24 24" fill="none" xmlns="http://www.w3.org/2000/svg">
<path d="M13.8783 11.9978L19.6061 6.28327C19.8569 6.03244 19.9978 5.69224 19.9978 5.33751C19.9978 4.98278 19.8569 4.64258 19.6061 4.39175C19.3553 4.14092 19.0151 4 18.6603 4C18.3056 4 17.9654 4.14092 17.7146 4.39175L12.0001 10.1196L6.28554 4.39175C6.03471 4.14092 5.69451 4 5.33978 4C4.98505 4 4.64485 4.14092 4.39402 4.39175C4.14319 4.64258 4.00227 4.98278 4.00227 5.33751C4.00227 5.69224 4.14319 6.03244 4.39402 6.28327L10.1219 11.9978L4.39402 17.7123C4.26917 17.8361 4.17007 17.9835 4.10244 18.1458C4.03482 18.3081 4 18.4822 4 18.6581C4 18.8339 4.03482 19.008 4.10244 19.1703C4.17007 19.3327 4.26917 19.48 4.39402 19.6038C4.51785 19.7287 4.66518 19.8278 4.8275 19.8954C4.98983 19.963 5.16393 19.9978 5.33978 19.9978C5.51563 19.9978 5.68973 19.963 5.85206 19.8954C6.01438 19.8278 6.16171 19.7287 6.28554 19.6038L12.0001 13.876L17.7146 19.6038C17.8384 19.7287 17.9857 19.8278 18.1481 19.8954C18.3104 19.963 18.4845 19.9978 18.6603 19.9978C18.8362 19.9978 19.0103 19.963 19.1726 19.8954C19.3349 19.8278 19.4823 19.7287 19.6061 19.6038C19.731 19.48 19.8301 19.3327 19.8977 19.1703C19.9653 19.008 20.0001 18.8339 20.0001 18.6581C20.0001 18.4822 19.9653 18.3081 19.8977 18.1458C19.8301 17.9835 19.731 17.8361 19.6061 17.7123L13.8783 11.9978Z" fill="#0E1D2B"/>
</svg>
