<svg width="28" height="28" viewBox="0 0 28 28" fill="none" xmlns="http://www.w3.org/2000/svg">
<g clip-path="url(#clip0_3_359)">
<path d="M19.2389 5.14063C19.2389 6.58984 18.7412 7.80391 17.7514 8.79922C16.7615 9.78906 15.542 10.2867 14.0928 10.2867C12.649 10.2867 11.4295 9.78906 10.4396 8.79922C9.4498 7.80938 8.95215 6.58984 8.95215 5.14063C8.95215 3.69141 9.4498 2.47734 10.4396 1.48203C11.4295 0.486719 12.6545 0 14.0982 0C15.5475 0 16.7615 0.497656 17.7568 1.4875C18.7521 2.47734 19.2443 3.69688 19.2389 5.14063Z" fill="#009F0B"/>
<path d="M26.0205 10.5767V22.411C26.0205 23.0618 25.5174 23.5977 24.8721 23.6415C23.0947 23.7673 21.3447 24.172 19.6932 24.8392C17.9213 25.5501 16.2643 26.5235 14.7768 27.7267C14.3229 28.0876 13.683 28.0876 13.2291 27.7267C11.7416 26.5235 10.0846 25.5501 8.3127 24.8392C6.66113 24.172 4.91113 23.7673 3.13379 23.6415C2.48848 23.5977 1.98535 23.0563 1.98535 22.411V10.5767C1.99082 9.89306 2.54316 9.34071 3.22676 9.34071C3.27051 9.34071 3.30879 9.34071 3.35254 9.34618C4.98223 9.51024 6.60098 9.96415 8.21426 10.7134C10.2705 11.6704 12.2064 13.0048 14.0057 14.722C15.8104 13.0102 17.7408 11.6704 19.7971 10.7134C21.4049 9.96415 23.0291 9.51024 24.6588 9.34618C25.3369 9.27509 25.9494 9.76728 26.0205 10.4509C26.015 10.4946 26.0205 10.5384 26.0205 10.5767Z" fill="#009F0B"/>
</g>
<defs>
<clipPath id="clip0_3_359">
<rect width="28" height="28" fill="white"/>
</clipPath>
</defs>
</svg>
