<svg width="0" height="0" class="hidden">
  <symbol fill="none" xmlns="http://www.w3.org/2000/svg" viewBox="0 0 24 24" id="icon-calendar">
    <path fill-rule="evenodd" clip-rule="evenodd" d="M16 1C16.5523 1 17 1.44772 17 2V3.00163C17.4755 3.00489 17.891 3.01472 18.2518 3.04419C18.8139 3.09012 19.3306 3.18868 19.816 3.43597C20.5686 3.81947 21.1805 4.43139 21.564 5.18404C21.8113 5.66937 21.9099 6.18608 21.9558 6.74817C22 7.28936 22 7.95372 22 8.75868V17.2413C22 18.0463 22 18.7106 21.9558 19.2518C21.9099 19.8139 21.8113 20.3306 21.564 20.816C21.1805 21.5686 20.5686 22.1805 19.816 22.564C19.3306 22.8113 18.8139 22.9099 18.2518 22.9558C17.7106 23 17.0463 23 16.2413 23H7.75868C6.95372 23 6.28937 23 5.74818 22.9558C5.18608 22.9099 4.66937 22.8113 4.18404 22.564C3.43139 22.1805 2.81947 21.5686 2.43598 20.816C2.18868 20.3306 2.09012 19.8139 2.04419 19.2518C1.99998 18.7106 1.99999 18.0463 2 17.2413V8.7587C1.99999 7.95374 1.99998 7.28937 2.04419 6.74817C2.09012 6.18608 2.18868 5.66937 2.43598 5.18404C2.81947 4.43139 3.43139 3.81947 4.18404 3.43597C4.66937 3.18868 5.18608 3.09012 5.74818 3.04419C6.10898 3.01472 6.52454 3.00489 7 3.00163V2C7 1.44772 7.44772 1 8 1C8.55229 1 9 1.44772 9 2V3H15V2C15 1.44772 15.4477 1 16 1ZM7 5.00176V6C7 6.55228 7.44772 7 8 7C8.55229 7 9 6.55228 9 6V5H15V6C15 6.55228 15.4477 7 16 7C16.5523 7 17 6.55228 17 6V5.00176C17.4455 5.00489 17.7954 5.01357 18.089 5.03755C18.5274 5.07337 18.7516 5.1383 18.908 5.21799C19.2843 5.40973 19.5903 5.7157 19.782 6.09202C19.8617 6.24842 19.9266 6.47262 19.9624 6.91104C19.9992 7.36113 20 7.94342 20 8.8V9H4V8.8C4 7.94342 4.00078 7.36113 4.03755 6.91104C4.07337 6.47262 4.1383 6.24842 4.21799 6.09202C4.40973 5.7157 4.7157 5.40973 5.09202 5.21799C5.24842 5.1383 5.47262 5.07337 5.91104 5.03755C6.20463 5.01357 6.55447 5.00489 7 5.00176Z" fill="#009F0B"></path>
  </symbol>
  <symbol fill="none" xmlns="http://www.w3.org/2000/svg" viewBox="0 0 24 24" id="icon-clock">
    <path fill-rule="evenodd" clip-rule="evenodd" d="M1 12C1 5.92487 5.92487 1 12 1C18.0751 1 23 5.92487 23 12C23 18.0751 18.0751 23 12 23C5.92487 23 1 18.0751 1 12ZM13 6C13 5.44772 12.5523 5 12 5C11.4477 5 11 5.44772 11 6V12C11 12.3788 11.214 12.725 11.5528 12.8944L15.5528 14.8944C16.0468 15.1414 16.6474 14.9412 16.8944 14.4472C17.1414 13.9532 16.9412 13.3526 16.4472 13.1056L13 11.382V6Z" fill="#009F0B"></path>
  </symbol>
  <symbol fill="none" xmlns="http://www.w3.org/2000/svg" viewBox="0 0 41 40" id="icon-facebook">
    <rect x="0.5" width="40" height="40" rx="20" fill="white" fill-opacity="0.1"></rect>
    <path d="M27.2812 19.75C27.2812 23.1406 24.793 25.957 21.5391 26.4492V21.7188H23.125L23.4258 19.75H21.5391V18.4922C21.5391 17.9453 21.8125 17.4258 22.6602 17.4258H23.5078V15.7578C23.5078 15.7578 22.7422 15.6211 21.9766 15.6211C20.4453 15.6211 19.4336 16.5781 19.4336 18.2734V19.75H17.7109V21.7188H19.4336V26.4492C16.1797 25.957 13.7188 23.1406 13.7188 19.75C13.7188 16.0039 16.7539 12.9688 20.5 12.9688C24.2461 12.9688 27.2812 16.0039 27.2812 19.75Z" fill="white"></path>
  </symbol>
  <symbol fill="none" xmlns="http://www.w3.org/2000/svg" viewBox="0 0 41 40" id="icon-instagram">
    <rect x="0.5" width="40" height="40" rx="20" fill="white" fill-opacity="0.1"></rect>
    <path d="M20.6758 16.6055C22.3984 16.6055 23.8203 18.0273 23.8203 19.75C23.8203 21.5 22.3984 22.8945 20.6758 22.8945C18.9258 22.8945 17.5312 21.5 17.5312 19.75C17.5312 18.0273 18.9258 16.6055 20.6758 16.6055ZM20.6758 21.8008C21.7969 21.8008 22.6992 20.8984 22.6992 19.75C22.6992 18.6289 21.7969 17.7266 20.6758 17.7266C19.5273 17.7266 18.625 18.6289 18.625 19.75C18.625 20.8984 19.5547 21.8008 20.6758 21.8008ZM24.668 16.4961C24.668 16.9062 24.3398 17.2344 23.9297 17.2344C23.5195 17.2344 23.1914 16.9062 23.1914 16.4961C23.1914 16.0859 23.5195 15.7578 23.9297 15.7578C24.3398 15.7578 24.668 16.0859 24.668 16.4961ZM26.7461 17.2344C26.8008 18.2461 26.8008 21.2812 26.7461 22.293C26.6914 23.2773 26.4727 24.125 25.7617 24.8633C25.0508 25.5742 24.1758 25.793 23.1914 25.8477C22.1797 25.9023 19.1445 25.9023 18.1328 25.8477C17.1484 25.793 16.3008 25.5742 15.5625 24.8633C14.8516 24.125 14.6328 23.2773 14.5781 22.293C14.5234 21.2812 14.5234 18.2461 14.5781 17.2344C14.6328 16.25 14.8516 15.375 15.5625 14.6641C16.3008 13.9531 17.1484 13.7344 18.1328 13.6797C19.1445 13.625 22.1797 13.625 23.1914 13.6797C24.1758 13.7344 25.0508 13.9531 25.7617 14.6641C26.4727 15.375 26.6914 16.25 26.7461 17.2344ZM25.4336 23.3594C25.7617 22.5664 25.6797 20.6523 25.6797 19.75C25.6797 18.875 25.7617 16.9609 25.4336 16.1406C25.2148 15.6211 24.8047 15.1836 24.2852 14.9922C23.4648 14.6641 21.5508 14.7461 20.6758 14.7461C19.7734 14.7461 17.8594 14.6641 17.0664 14.9922C16.5195 15.2109 16.1094 15.6211 15.8906 16.1406C15.5625 16.9609 15.6445 18.875 15.6445 19.75C15.6445 20.6523 15.5625 22.5664 15.8906 23.3594C16.1094 23.9062 16.5195 24.3164 17.0664 24.5352C17.8594 24.8633 19.7734 24.7812 20.6758 24.7812C21.5508 24.7812 23.4648 24.8633 24.2852 24.5352C24.8047 24.3164 25.2422 23.9062 25.4336 23.3594Z" fill="white"></path>
  </symbol>
  <symbol fill="none" xmlns="http://www.w3.org/2000/svg" viewBox="0 0 28 28" id="icon-library">
    <g clip-path="url(#clip0_3_359)">
      <path d="M19.2389 5.14063C19.2389 6.58984 18.7412 7.80391 17.7514 8.79922C16.7615 9.78906 15.542 10.2867 14.0928 10.2867C12.649 10.2867 11.4295 9.78906 10.4396 8.79922C9.4498 7.80938 8.95215 6.58984 8.95215 5.14063C8.95215 3.69141 9.4498 2.47734 10.4396 1.48203C11.4295 0.486719 12.6545 0 14.0982 0C15.5475 0 16.7615 0.497656 17.7568 1.4875C18.7521 2.47734 19.2443 3.69688 19.2389 5.14063Z" fill="#009F0B"></path>
      <path d="M26.0205 10.5767V22.411C26.0205 23.0618 25.5174 23.5977 24.8721 23.6415C23.0947 23.7673 21.3447 24.172 19.6932 24.8392C17.9213 25.5501 16.2643 26.5235 14.7768 27.7267C14.3229 28.0876 13.683 28.0876 13.2291 27.7267C11.7416 26.5235 10.0846 25.5501 8.3127 24.8392C6.66113 24.172 4.91113 23.7673 3.13379 23.6415C2.48848 23.5977 1.98535 23.0563 1.98535 22.411V10.5767C1.99082 9.89306 2.54316 9.34071 3.22676 9.34071C3.27051 9.34071 3.30879 9.34071 3.35254 9.34618C4.98223 9.51024 6.60098 9.96415 8.21426 10.7134C10.2705 11.6704 12.2064 13.0048 14.0057 14.722C15.8104 13.0102 17.7408 11.6704 19.7971 10.7134C21.4049 9.96415 23.0291 9.51024 24.6588 9.34618C25.3369 9.27509 25.9494 9.76728 26.0205 10.4509C26.015 10.4946 26.0205 10.5384 26.0205 10.5767Z" fill="#009F0B"></path>
    </g>
    <defs>
      <clipPath id="clip0_3_359">
        <rect width="28" height="28" fill="white"></rect>
      </clipPath>
    </defs>
  </symbol>
  <symbol fill="none" xmlns="http://www.w3.org/2000/svg" viewBox="0 0 28 28" id="icon-market">
    <path fill-rule="evenodd" clip-rule="evenodd" d="M25.4241 7.46766C25.4125 7.95066 25.0123 8.33333 24.5293 8.32283C24.0463 8.31116 23.6636 7.91099 23.6741 7.42799L23.722 5.32099L21.6161 5.27316C21.1331 5.26149 20.7505 4.86133 20.761 4.37833C20.7726 3.89533 21.1728 3.51266 21.6558 3.52316L24.6378 3.59199C25.1208 3.60249 25.5035 4.00266 25.4918 4.48566L25.4241 7.46766Z" fill="#009F0B"></path>
    <path fill-rule="evenodd" clip-rule="evenodd" d="M6.79784 10.9037V25.0682C6.79784 25.8825 6.13867 26.5417 5.32434 26.5417H2.93151C2.11717 26.5417 1.45801 25.8825 1.45801 25.0682V10.9037C1.45801 10.0905 2.11717 9.43018 2.93151 9.43018H5.32434C6.13867 9.43018 6.79784 10.0905 6.79784 10.9037Z" fill="#009F0B"></path>
    <path fill-rule="evenodd" clip-rule="evenodd" d="M19.9599 18.0834V25.0682C19.9599 25.459 19.8048 25.8335 19.5283 26.11C19.2518 26.3865 18.8773 26.5417 18.4865 26.5417H16.0936C15.7028 26.5417 15.3283 26.3865 15.0518 26.11C14.7753 25.8335 14.6201 25.459 14.6201 25.0682V18.0834C14.6201 17.6925 14.7753 17.318 15.0518 17.0415C15.3283 16.765 15.7028 16.6099 16.0936 16.6099H18.4865C18.8773 16.6099 19.2518 16.765 19.5283 17.0415C19.8048 17.318 19.9599 17.6925 19.9599 18.0834Z" fill="#009F0B"></path>
    <path fill-rule="evenodd" clip-rule="evenodd" d="M13.3789 14.4935V25.0682C13.3789 25.8825 12.7197 26.5417 11.9054 26.5417H9.51256C8.69823 26.5417 8.03906 25.8825 8.03906 25.0682V14.4935C8.03906 14.1027 8.19423 13.7282 8.47073 13.4517C8.74723 13.1752 9.12173 13.02 9.51256 13.02H11.9054C12.7197 13.02 13.3789 13.6804 13.3789 14.4935Z" fill="#009F0B"></path>
    <path fill-rule="evenodd" clip-rule="evenodd" d="M26.541 14.4935V25.0682C26.541 25.8825 25.8818 26.5417 25.0675 26.5417H22.6747C21.8603 26.5417 21.2012 25.8825 21.2012 25.0682V14.4935C21.2012 14.1027 21.3563 13.7282 21.6328 13.4517C21.9093 13.1752 22.2838 13.02 22.6747 13.02H25.0675C25.8818 13.02 26.541 13.6804 26.541 14.4935Z" fill="#009F0B"></path>
    <path fill-rule="evenodd" clip-rule="evenodd" d="M2.85832 3.03316C2.47098 2.74382 2.39282 2.19432 2.68332 1.80816C2.97265 1.42199 3.52098 1.34382 3.90832 1.63316L10.8535 6.84232H14.1517C14.4212 6.84232 14.6743 6.96599 14.84 7.17716L17.5082 10.5733L23.6915 4.12049C24.0252 3.77166 24.5793 3.75999 24.9282 4.09482C25.277 4.42849 25.2887 4.98266 24.955 5.33149L18.074 12.5112C17.899 12.6943 17.6528 12.7923 17.3997 12.7795C17.1465 12.7678 16.9108 12.6453 16.7545 12.4458L13.727 8.59232H10.5618C10.3728 8.59232 10.1885 8.53165 10.0368 8.41732L2.85832 3.03316Z" fill="#009F0B"></path>
  </symbol>
  <symbol fill="none" xmlns="http://www.w3.org/2000/svg" viewBox="0 0 24 24" id="icon-money">
    <g clip-path="url(#clip0_3_394)">
      <path d="M11.9988 9C12.2331 9.00229 12.4251 9.192 12.4251 9.42857V10.2857H12.856C14.0348 10.2857 14.9988 11.248 14.9988 12.4263C14.9988 12.6629 14.8091 12.8571 14.5703 12.8571C14.3337 12.8594 14.1394 12.6651 14.1417 12.4263C14.1417 11.712 13.5703 11.1429 12.856 11.1429H11.1417C10.4274 11.1429 9.85826 11.712 9.85826 12.4263V13.2857C9.85826 14 10.4274 14.5714 11.1417 14.5714H12.856C14.0348 14.5714 14.9988 15.536 14.9988 16.7143V17.5714C14.9988 18.7503 14.0348 19.7143 12.856 19.7143H12.4251V20.5714C12.4274 20.808 12.2354 21 11.9988 21C11.76 21.0023 11.568 20.808 11.568 20.5714V19.7143H11.1417C9.9634 19.7143 8.99883 18.7503 8.99883 17.5714C9.00112 17.3349 9.19083 17.1451 9.4274 17.1451C9.66397 17.1429 9.85597 17.3349 9.85826 17.5714C9.85826 18.2857 10.4274 18.8549 11.1417 18.8549H12.856C13.5703 18.8549 14.1417 18.2857 14.1417 17.5714V16.7143C14.1417 16 13.5703 15.4286 12.856 15.4286H11.1417C9.9634 15.4286 8.99883 14.4646 8.99883 13.2857V12.4263C8.99883 11.248 9.9634 10.2857 11.1417 10.2857H11.568V9.42857C11.5703 9.192 11.7623 9 11.9988 9ZM9.4274 0C8.72226 0 8.14169 0.580571 8.14169 1.28571V3C8.14169 3.95771 8.59712 4.81486 9.29997 5.364C5.93197 6.192 3.42969 9.23657 3.42969 12.8571V20.1429C3.42969 22.268 5.1594 24 7.28454 24H16.7131C18.8383 24 20.5703 22.268 20.5703 20.1429V12.8571C20.5703 9.23657 18.0657 6.192 14.6977 5.364C15.4005 4.81486 15.856 3.95771 15.856 3V1.28571C15.856 0.580571 15.2754 0 14.5703 0L9.4274 0Z" fill="#009F0B"></path>
    </g>
    <defs>
      <clipPath id="clip0_3_394">
        <rect width="24" height="24" fill="white"></rect>
      </clipPath>
    </defs>
  </symbol>
  <symbol fill="none" xmlns="http://www.w3.org/2000/svg" viewBox="0 0 28 28" id="icon-saving">
    <g clip-path="url(#clip0_3_371)">
      <path d="M25.5391 13.1797V14.8203C25.9917 14.8203 26.3594 15.188 26.3594 15.6406C26.3594 16.6081 26.0424 16.7448 24.4327 17.1172C22.7887 10.6038 14.7436 10.0431 7.98224 11.281C7.51205 10.3631 6.44971 9.89844 4.80994 9.89844H3.3447L3.33594 15.1615C2.97235 15.5742 2.61966 16.0091 2.38019 16.4609H0V21.3828H2.38104C3.05161 22.6372 4.21713 23.8128 5.73044 24.6515L6.84619 28H11.5391V26.2808C12.6909 26.3882 13.7518 26.3795 14.8203 26.2912V28H19.5132L20.6353 24.6337C23.1644 23.2415 24.6641 21.0912 24.6641 18.9219C24.6641 18.8644 24.6557 18.8082 24.6544 18.751L24.7715 18.7232C26.3318 18.3635 28 17.9911 28 15.6406C28 14.2837 26.896 13.1797 25.5391 13.1797ZM8.25781 18.1016H6.61719V16.4609H8.25781V18.1016ZM15.6406 16.4609H10.7188V14.8203H15.6406V16.4609Z" fill="#009F0B"></path>
      <path d="M8.25781 4.97656C8.25781 7.69064 10.4656 9.89844 13.1797 9.89844C15.8938 9.89844 18.1016 7.69064 18.1016 4.97656C18.1016 2.26248 15.8938 0 13.1797 0C10.4656 0 8.25781 2.26248 8.25781 4.97656ZM14 6.61719H12.3594V3.33594H14V6.61719Z" fill="#009F0B"></path>
    </g>
    <defs>
      <clipPath id="clip0_3_371">
        <rect width="28" height="28" fill="white"></rect>
      </clipPath>
    </defs>
  </symbol>
  <symbol fill="none" xmlns="http://www.w3.org/2000/svg" viewBox="0 0 41 40" id="icon-twitter">
    <rect x="0.5" width="40" height="40" rx="20" fill="white" fill-opacity="0.1"></rect>
    <path d="M26.0508 16.9062C26.0508 17.043 26.0508 17.1523 26.0508 17.2891C26.0508 21.0898 23.1797 25.4375 17.9023 25.4375C16.2617 25.4375 14.7578 24.9727 13.5 24.1523C13.7188 24.1797 13.9375 24.207 14.1836 24.207C15.5234 24.207 16.7539 23.7422 17.7383 22.9766C16.4805 22.9492 15.4141 22.1289 15.0586 20.9805C15.25 21.0078 15.4141 21.0352 15.6055 21.0352C15.8516 21.0352 16.125 20.9805 16.3438 20.9258C15.0312 20.6523 14.0469 19.5039 14.0469 18.1094V18.082C14.4297 18.3008 14.8945 18.4102 15.3594 18.4375C14.5664 17.918 14.0742 17.043 14.0742 16.0586C14.0742 15.5117 14.2109 15.0195 14.457 14.6094C15.8789 16.332 18.0117 17.4805 20.3906 17.6172C20.3359 17.3984 20.3086 17.1797 20.3086 16.9609C20.3086 15.375 21.5938 14.0898 23.1797 14.0898C24 14.0898 24.7383 14.418 25.2852 14.9922C25.9141 14.8555 26.543 14.6094 27.0898 14.2812C26.8711 14.9648 26.4336 15.5117 25.832 15.8672C26.4062 15.8125 26.9805 15.6484 27.4727 15.4297C27.0898 16.0039 26.5977 16.4961 26.0508 16.9062Z" fill="white"></path>
  </symbol>
  <symbol fill="none" xmlns="http://www.w3.org/2000/svg" viewBox="0 0 41 40" id="icon-youtube">
    <rect x="0.5" width="40" height="40" rx="20" fill="white" fill-opacity="0.1"></rect>
    <path d="M27.7666 16.168C28.0947 17.3164 28.0947 19.7773 28.0947 19.7773C28.0947 19.7773 28.0947 22.2109 27.7666 23.3867C27.6025 24.043 27.083 24.5352 26.4541 24.6992C25.2783 25 20.6299 25 20.6299 25C20.6299 25 15.9541 25 14.7783 24.6992C14.1494 24.5352 13.6299 24.043 13.4658 23.3867C13.1377 22.2109 13.1377 19.7773 13.1377 19.7773C13.1377 19.7773 13.1377 17.3164 13.4658 16.168C13.6299 15.5117 14.1494 14.9922 14.7783 14.8281C15.9541 14.5 20.6299 14.5 20.6299 14.5C20.6299 14.5 25.2783 14.5 26.4541 14.8281C27.083 14.9922 27.6025 15.5117 27.7666 16.168ZM19.0986 21.9922L22.9814 19.7773L19.0986 17.5625V21.9922Z" fill="white"></path>
  </symbol>
</svg>