<svg width="0" height="0" class="hidden">
  <symbol fill="none" xmlns="http://www.w3.org/2000/svg" viewBox="0 0 28 28" id="icon-library">
    <g clip-path="url(#clip0_3_359)">
      <path d="M19.2389 5.14063C19.2389 6.58984 18.7412 7.80391 17.7514 8.79922C16.7615 9.78906 15.542 10.2867 14.0928 10.2867C12.649 10.2867 11.4295 9.78906 10.4396 8.79922C9.4498 7.80938 8.95215 6.58984 8.95215 5.14063C8.95215 3.69141 9.4498 2.47734 10.4396 1.48203C11.4295 0.486719 12.6545 0 14.0982 0C15.5475 0 16.7615 0.497656 17.7568 1.4875C18.7521 2.47734 19.2443 3.69688 19.2389 5.14063Z" fill="#009F0B"></path>
      <path d="M26.0205 10.5767V22.411C26.0205 23.0618 25.5174 23.5977 24.8721 23.6415C23.0947 23.7673 21.3447 24.172 19.6932 24.8392C17.9213 25.5501 16.2643 26.5235 14.7768 27.7267C14.3229 28.0876 13.683 28.0876 13.2291 27.7267C11.7416 26.5235 10.0846 25.5501 8.3127 24.8392C6.66113 24.172 4.91113 23.7673 3.13379 23.6415C2.48848 23.5977 1.98535 23.0563 1.98535 22.411V10.5767C1.99082 9.89306 2.54316 9.34071 3.22676 9.34071C3.27051 9.34071 3.30879 9.34071 3.35254 9.34618C4.98223 9.51024 6.60098 9.96415 8.21426 10.7134C10.2705 11.6704 12.2064 13.0048 14.0057 14.722C15.8104 13.0102 17.7408 11.6704 19.7971 10.7134C21.4049 9.96415 23.0291 9.51024 24.6588 9.34618C25.3369 9.27509 25.9494 9.76728 26.0205 10.4509C26.015 10.4946 26.0205 10.5384 26.0205 10.5767Z" fill="#009F0B"></path>
    </g>
    <defs>
      <clipPath id="clip0_3_359">
        <rect width="28" height="28" fill="white"></rect>
      </clipPath>
    </defs>
  </symbol>
  <symbol fill="none" xmlns="http://www.w3.org/2000/svg" viewBox="0 0 28 28" id="icon-market">
    <path fill-rule="evenodd" clip-rule="evenodd" d="M25.4241 7.46766C25.4125 7.95066 25.0123 8.33333 24.5293 8.32283C24.0463 8.31116 23.6636 7.91099 23.6741 7.42799L23.722 5.32099L21.6161 5.27316C21.1331 5.26149 20.7505 4.86133 20.761 4.37833C20.7726 3.89533 21.1728 3.51266 21.6558 3.52316L24.6378 3.59199C25.1208 3.60249 25.5035 4.00266 25.4918 4.48566L25.4241 7.46766Z" fill="#009F0B"></path>
    <path fill-rule="evenodd" clip-rule="evenodd" d="M6.79784 10.9037V25.0682C6.79784 25.8825 6.13867 26.5417 5.32434 26.5417H2.93151C2.11717 26.5417 1.45801 25.8825 1.45801 25.0682V10.9037C1.45801 10.0905 2.11717 9.43018 2.93151 9.43018H5.32434C6.13867 9.43018 6.79784 10.0905 6.79784 10.9037Z" fill="#009F0B"></path>
    <path fill-rule="evenodd" clip-rule="evenodd" d="M19.9599 18.0834V25.0682C19.9599 25.459 19.8048 25.8335 19.5283 26.11C19.2518 26.3865 18.8773 26.5417 18.4865 26.5417H16.0936C15.7028 26.5417 15.3283 26.3865 15.0518 26.11C14.7753 25.8335 14.6201 25.459 14.6201 25.0682V18.0834C14.6201 17.6925 14.7753 17.318 15.0518 17.0415C15.3283 16.765 15.7028 16.6099 16.0936 16.6099H18.4865C18.8773 16.6099 19.2518 16.765 19.5283 17.0415C19.8048 17.318 19.9599 17.6925 19.9599 18.0834Z" fill="#009F0B"></path>
    <path fill-rule="evenodd" clip-rule="evenodd" d="M13.3789 14.4935V25.0682C13.3789 25.8825 12.7197 26.5417 11.9054 26.5417H9.51256C8.69823 26.5417 8.03906 25.8825 8.03906 25.0682V14.4935C8.03906 14.1027 8.19423 13.7282 8.47073 13.4517C8.74723 13.1752 9.12173 13.02 9.51256 13.02H11.9054C12.7197 13.02 13.3789 13.6804 13.3789 14.4935Z" fill="#009F0B"></path>
    <path fill-rule="evenodd" clip-rule="evenodd" d="M26.541 14.4935V25.0682C26.541 25.8825 25.8818 26.5417 25.0675 26.5417H22.6747C21.8603 26.5417 21.2012 25.8825 21.2012 25.0682V14.4935C21.2012 14.1027 21.3563 13.7282 21.6328 13.4517C21.9093 13.1752 22.2838 13.02 22.6747 13.02H25.0675C25.8818 13.02 26.541 13.6804 26.541 14.4935Z" fill="#009F0B"></path>
    <path fill-rule="evenodd" clip-rule="evenodd" d="M2.85832 3.03316C2.47098 2.74382 2.39282 2.19432 2.68332 1.80816C2.97265 1.42199 3.52098 1.34382 3.90832 1.63316L10.8535 6.84232H14.1517C14.4212 6.84232 14.6743 6.96599 14.84 7.17716L17.5082 10.5733L23.6915 4.12049C24.0252 3.77166 24.5793 3.75999 24.9282 4.09482C25.277 4.42849 25.2887 4.98266 24.955 5.33149L18.074 12.5112C17.899 12.6943 17.6528 12.7923 17.3997 12.7795C17.1465 12.7678 16.9108 12.6453 16.7545 12.4458L13.727 8.59232H10.5618C10.3728 8.59232 10.1885 8.53165 10.0368 8.41732L2.85832 3.03316Z" fill="#009F0B"></path>
  </symbol>
  <symbol fill="none" xmlns="http://www.w3.org/2000/svg" viewBox="0 0 24 24" id="icon-money">
    <g clip-path="url(#clip0_3_394)">
      <path d="M11.9988 9C12.2331 9.00229 12.4251 9.192 12.4251 9.42857V10.2857H12.856C14.0348 10.2857 14.9988 11.248 14.9988 12.4263C14.9988 12.6629 14.8091 12.8571 14.5703 12.8571C14.3337 12.8594 14.1394 12.6651 14.1417 12.4263C14.1417 11.712 13.5703 11.1429 12.856 11.1429H11.1417C10.4274 11.1429 9.85826 11.712 9.85826 12.4263V13.2857C9.85826 14 10.4274 14.5714 11.1417 14.5714H12.856C14.0348 14.5714 14.9988 15.536 14.9988 16.7143V17.5714C14.9988 18.7503 14.0348 19.7143 12.856 19.7143H12.4251V20.5714C12.4274 20.808 12.2354 21 11.9988 21C11.76 21.0023 11.568 20.808 11.568 20.5714V19.7143H11.1417C9.9634 19.7143 8.99883 18.7503 8.99883 17.5714C9.00112 17.3349 9.19083 17.1451 9.4274 17.1451C9.66397 17.1429 9.85597 17.3349 9.85826 17.5714C9.85826 18.2857 10.4274 18.8549 11.1417 18.8549H12.856C13.5703 18.8549 14.1417 18.2857 14.1417 17.5714V16.7143C14.1417 16 13.5703 15.4286 12.856 15.4286H11.1417C9.9634 15.4286 8.99883 14.4646 8.99883 13.2857V12.4263C8.99883 11.248 9.9634 10.2857 11.1417 10.2857H11.568V9.42857C11.5703 9.192 11.7623 9 11.9988 9ZM9.4274 0C8.72226 0 8.14169 0.580571 8.14169 1.28571V3C8.14169 3.95771 8.59712 4.81486 9.29997 5.364C5.93197 6.192 3.42969 9.23657 3.42969 12.8571V20.1429C3.42969 22.268 5.1594 24 7.28454 24H16.7131C18.8383 24 20.5703 22.268 20.5703 20.1429V12.8571C20.5703 9.23657 18.0657 6.192 14.6977 5.364C15.4005 4.81486 15.856 3.95771 15.856 3V1.28571C15.856 0.580571 15.2754 0 14.5703 0L9.4274 0Z" fill="#009F0B"></path>
    </g>
    <defs>
      <clipPath id="clip0_3_394">
        <rect width="24" height="24" fill="white"></rect>
      </clipPath>
    </defs>
  </symbol>
  <symbol fill="none" xmlns="http://www.w3.org/2000/svg" viewBox="0 0 28 28" id="icon-saving">
    <g clip-path="url(#clip0_3_371)">
      <path d="M25.5391 13.1797V14.8203C25.9917 14.8203 26.3594 15.188 26.3594 15.6406C26.3594 16.6081 26.0424 16.7448 24.4327 17.1172C22.7887 10.6038 14.7436 10.0431 7.98224 11.281C7.51205 10.3631 6.44971 9.89844 4.80994 9.89844H3.3447L3.33594 15.1615C2.97235 15.5742 2.61966 16.0091 2.38019 16.4609H0V21.3828H2.38104C3.05161 22.6372 4.21713 23.8128 5.73044 24.6515L6.84619 28H11.5391V26.2808C12.6909 26.3882 13.7518 26.3795 14.8203 26.2912V28H19.5132L20.6353 24.6337C23.1644 23.2415 24.6641 21.0912 24.6641 18.9219C24.6641 18.8644 24.6557 18.8082 24.6544 18.751L24.7715 18.7232C26.3318 18.3635 28 17.9911 28 15.6406C28 14.2837 26.896 13.1797 25.5391 13.1797ZM8.25781 18.1016H6.61719V16.4609H8.25781V18.1016ZM15.6406 16.4609H10.7188V14.8203H15.6406V16.4609Z" fill="#009F0B"></path>
      <path d="M8.25781 4.97656C8.25781 7.69064 10.4656 9.89844 13.1797 9.89844C15.8938 9.89844 18.1016 7.69064 18.1016 4.97656C18.1016 2.26248 15.8938 0 13.1797 0C10.4656 0 8.25781 2.26248 8.25781 4.97656ZM14 6.61719H12.3594V3.33594H14V6.61719Z" fill="#009F0B"></path>
    </g>
    <defs>
      <clipPath id="clip0_3_371">
        <rect width="28" height="28" fill="white"></rect>
      </clipPath>
    </defs>
  </symbol>
</svg>