<svg width="215" height="52" viewBox="0 0 215 52" fill="none" xmlns="http://www.w3.org/2000/svg">
<g clip-path="url(#clip0_315_943)">
<path d="M63.3516 44.08L68.5721 31.9346H69.279L74.6018 44.08H73.8089L72.275 40.5656L72.6715 40.7199H65.1438L65.6264 40.5656L64.1284 44.08H63.3534H63.3516ZM68.8986 32.8998L65.8147 40.153L65.4362 40.0489H72.379L72.1028 40.153L68.9327 32.8998H68.8986Z" fill="url(#paint0_linear_315_943)"/>
<path d="M79.9422 44.2165C79.1385 44.2165 78.4442 44.0353 77.8576 43.6729C77.2727 43.3105 76.8206 42.792 76.5049 42.1139C76.1891 41.4358 76.0312 40.632 76.0312 39.7027C76.0312 38.7734 76.1909 37.9805 76.5138 37.3257C76.835 36.6709 77.2889 36.1739 77.8755 35.8349C78.4603 35.4958 79.151 35.3271 79.9422 35.3271C80.4822 35.3271 81.0025 35.433 81.5012 35.6465C81.9999 35.86 82.4161 36.1542 82.7498 36.5345L82.3874 37.0853C82.0197 36.7067 81.6232 36.4305 81.198 36.2582C80.7728 36.086 80.3476 35.9999 79.9225 35.9999C78.934 35.9999 78.1625 36.3192 77.6046 36.9561C77.0467 37.593 76.7686 38.5151 76.7686 39.7207C76.7686 40.9263 77.0467 41.8807 77.6046 42.5463C78.1607 43.2118 78.934 43.5455 79.9225 43.5455C80.3243 43.5455 80.7405 43.463 81.1711 43.2962C81.6017 43.1293 82.0071 42.8512 82.3856 42.4601L82.748 43.0109C82.4036 43.402 81.9748 43.6998 81.4653 43.9061C80.954 44.1124 80.4463 44.2165 79.9404 44.2165H79.9422Z" fill="url(#paint1_linear_315_943)"/>
<path d="M88.159 44.2163C87.3786 44.2163 86.7004 44.0387 86.1264 43.6817C85.5523 43.3265 85.1092 42.8152 84.8006 42.1478C84.4902 41.4823 84.3359 40.6893 84.3359 39.7708C84.3359 38.8522 84.4938 38.0449 84.8096 37.3847C85.1253 36.7245 85.5702 36.2168 86.1443 35.8598C86.7184 35.5046 87.3911 35.3252 88.1608 35.3252C88.9753 35.3252 89.6731 35.5369 90.2544 35.9621C90.8339 36.3873 91.216 36.9721 91.4008 37.7202H91.1944L91.3667 35.4633H92.0735C92.0394 35.7845 92.0071 36.1002 91.9784 36.4106C91.9497 36.7209 91.9354 37.0241 91.9354 37.3237V44.0764H91.2124V41.8195H91.4026C91.2196 42.5658 90.8339 43.1525 90.249 43.5777C89.6642 44.0028 88.9681 44.2145 88.1644 44.2145L88.159 44.2163ZM88.159 43.5436C89.1008 43.5436 89.8471 43.2189 90.3979 42.5694C90.9487 41.92 91.2249 40.9871 91.2249 39.7708C91.2249 38.5544 90.9487 37.6197 90.3979 36.9703C89.8471 36.3209 89.099 35.9962 88.159 35.9962C87.2189 35.9962 86.4672 36.3209 85.9111 36.9703C85.3531 37.6197 85.0751 38.5526 85.0751 39.7708C85.0751 40.9889 85.3531 41.9218 85.9111 42.5694C86.4672 43.2189 87.2171 43.5436 88.159 43.5436Z" fill="url(#paint2_linear_315_943)"/>
<path d="M98.1677 44.2167C97.3981 44.2167 96.7289 44.0391 96.1602 43.6821C95.5915 43.3268 95.152 42.8155 94.8416 42.1482C94.5312 41.4826 94.377 40.6896 94.377 39.7711C94.377 38.8526 94.5312 38.0453 94.8416 37.3851C95.152 36.7249 95.5915 36.2172 96.1602 35.8601C96.7289 35.5049 97.3981 35.3255 98.1677 35.3255C98.984 35.3255 99.6836 35.5372 100.27 35.9624C100.857 36.3876 101.246 36.9724 101.442 37.7205H101.252V31.3984H101.975V44.0785H101.252V41.8217H101.442C101.246 42.568 100.857 43.1546 100.27 43.5798C99.6854 44.005 98.984 44.2167 98.1677 44.2167ZM98.1856 43.5439C99.1167 43.5439 99.8631 43.2192 100.425 42.5698C100.988 41.9203 101.27 40.9874 101.27 39.7711C101.27 38.5548 100.988 37.6201 100.425 36.9706C99.8613 36.3212 99.1149 35.9965 98.1856 35.9965C97.2563 35.9965 96.4975 36.3212 95.9467 36.9706C95.396 37.6201 95.1197 38.553 95.1197 39.7711C95.1197 40.9892 95.396 41.9221 95.9467 42.5698C96.4975 43.2192 97.2438 43.5439 98.1856 43.5439Z" fill="url(#paint3_linear_315_943)"/>
<path d="M108.557 44.2166C107.294 44.2166 106.29 43.8291 105.543 43.0541C104.797 42.2791 104.424 41.1973 104.424 39.807C104.424 38.8884 104.591 38.0955 104.923 37.4299C105.256 36.7643 105.724 36.2476 106.327 35.8799C106.93 35.5121 107.623 35.3291 108.403 35.3291C109.183 35.3291 109.784 35.487 110.306 35.8027C110.828 36.1185 111.23 36.5724 111.512 37.1644C111.794 37.7564 111.934 38.4597 111.934 39.2741V39.7388H104.888V39.084H111.555L111.263 39.3082C111.263 38.2749 111.022 37.4622 110.54 36.8702C110.057 36.2781 109.339 35.9821 108.387 35.9821C107.377 35.9821 106.586 36.3266 106.019 37.0155C105.45 37.7044 105.167 38.6068 105.167 39.7208V39.807C105.167 41.0251 105.464 41.9526 106.062 42.5895C106.659 43.2263 107.492 43.5457 108.559 43.5457C109.099 43.5457 109.603 43.4596 110.075 43.2873C110.545 43.1151 110.999 42.8227 111.437 42.4083L111.799 42.977C111.444 43.3681 110.972 43.6713 110.387 43.8901C109.802 44.1072 109.192 44.2166 108.561 44.2166H108.557Z" fill="url(#paint4_linear_315_943)"/>
<path d="M114.329 44.0801V37.3275C114.329 37.0297 114.314 36.7247 114.286 36.4143C114.257 36.104 114.225 35.7882 114.19 35.4671H114.897L115.052 37.5338H114.845C115.062 36.8216 115.425 36.2762 115.931 35.8976C116.437 35.5191 117.05 35.3289 117.775 35.3289C118.5 35.3289 119.142 35.5101 119.601 35.8707C120.06 36.2331 120.358 36.7929 120.496 37.5499H120.256C120.452 36.8718 120.821 36.3318 121.366 35.9299C121.912 35.5281 122.57 35.3271 123.34 35.3271C124.258 35.3271 124.96 35.5909 125.442 36.1201C125.925 36.6475 126.165 37.4746 126.165 38.6012V44.0801H125.442V38.6712C125.442 37.7401 125.276 37.0638 124.944 36.6386C124.61 36.2134 124.07 36.0017 123.324 36.0017C122.486 36.0017 121.822 36.2834 121.334 36.8467C120.846 37.41 120.602 38.1671 120.602 39.1197V44.0819H119.879V38.673C119.879 37.7419 119.712 37.0655 119.381 36.6404C119.047 36.2152 118.507 36.0035 117.761 36.0035C116.923 36.0035 116.263 36.2852 115.78 36.8485C115.297 37.4118 115.057 38.1689 115.057 39.1215V44.0837H114.334L114.329 44.0801Z" fill="url(#paint5_linear_315_943)"/>
<path d="M128.575 47.989L128.403 47.3181C128.943 47.1925 129.388 47.0346 129.738 46.8444C130.087 46.6543 130.383 46.4103 130.626 46.1125C130.866 45.8129 131.085 45.4415 131.28 44.993L131.729 43.9597L131.711 44.322L127.956 35.4668H128.783L132.246 43.8054H131.849L135.259 35.4668H136.087L132.073 45.011C131.867 45.5043 131.643 45.9205 131.402 46.2596C131.162 46.5987 130.9 46.8821 130.618 47.1117C130.337 47.3414 130.026 47.5244 129.687 47.6625C129.348 47.8006 128.979 47.9083 128.577 47.989H128.575Z" fill="url(#paint6_linear_315_943)"/>
<path d="M63.3516 28.5917V7.33984H73.2689C75.6603 7.33984 77.474 7.91752 78.7101 9.07286C79.9462 10.2282 80.5633 11.8105 80.5633 13.8198C80.5633 15.8291 79.9444 17.3917 78.7101 18.5668C77.474 19.7419 75.6603 20.3303 73.2689 20.3303H68.0537V28.5899H63.3516V28.5917ZM68.0537 16.6849H72.6661C73.7909 16.6849 74.6305 16.4337 75.1831 15.9314C75.7356 15.4291 76.0119 14.7258 76.0119 13.8216C76.0119 12.9174 75.7356 12.2196 75.1831 11.7262C74.6305 11.2329 73.7909 10.9871 72.6661 10.9871H68.0537V16.6849Z" fill="url(#paint7_linear_315_943)"/>
<path d="M88.6721 28.9215C87.3464 28.9215 86.1803 28.6004 85.1756 27.9564C84.171 27.3141 83.387 26.3991 82.8254 25.2133C82.2621 24.0275 81.9805 22.6012 81.9805 20.9328C81.9805 19.2644 82.2621 17.8686 82.8254 16.6828C83.387 15.4969 84.171 14.5874 85.1756 13.9559C86.1803 13.3226 87.3464 13.0068 88.6721 13.0068C89.8974 13.0068 90.999 13.3028 91.9731 13.8967C92.9473 14.4887 93.5859 15.2888 93.8873 16.2935H93.5554L93.9178 13.31H98.2881C98.2289 13.972 98.1714 14.6412 98.123 15.3139C98.0728 15.9885 98.0477 16.6451 98.0477 17.2891V28.5932H93.5267L93.4962 25.73H93.8586C93.5375 26.6934 92.8935 27.4684 91.9301 28.0514C90.9649 28.6345 89.8795 28.9251 88.6739 28.9251L88.6721 28.9215ZM90.0589 25.486C91.103 25.486 91.948 25.1146 92.5903 24.3701C93.2325 23.6274 93.5554 22.481 93.5554 20.9328C93.5554 19.3846 93.2343 18.2507 92.5903 17.526C91.948 16.803 91.103 16.4406 90.0589 16.4406C89.0148 16.4406 88.1698 16.803 87.5276 17.526C86.8835 18.2489 86.5624 19.3846 86.5624 20.9328C86.5624 22.481 86.8781 23.6256 87.5114 24.3701C88.1447 25.1128 88.9933 25.486 90.0589 25.486Z" fill="url(#paint8_linear_315_943)"/>
<path d="M112.543 7.33398V15.3389C112.191 14.754 111.684 14.2625 111.022 13.8678C110.066 13.2919 108.987 13.0049 107.78 13.0049C106.452 13.0049 105.281 13.3224 104.255 13.9575C103.229 14.589 102.436 15.4967 101.871 16.6844C101.309 17.8684 101.027 19.2875 101.027 20.9326C101.027 22.5777 101.314 24.0273 101.887 25.2149C102.459 26.399 103.252 27.3121 104.271 27.958C105.285 28.6002 106.452 28.9214 107.78 28.9214C109.007 28.9214 110.101 28.62 111.065 28.0154C111.734 27.5974 112.249 27.0825 112.604 26.4707V28.5877H117.096V7.33398H112.543ZM111.669 24.3735C111.027 25.1162 110.184 25.4876 109.14 25.4876C108.096 25.4876 107.244 25.1162 106.594 24.3735C105.941 23.6272 105.611 22.4808 105.611 20.9344C105.611 19.388 105.939 18.2524 106.594 17.5294C107.244 16.8064 108.096 16.4458 109.14 16.4458C110.184 16.4458 111.027 16.8064 111.669 17.5294C112.312 18.2524 112.636 19.3862 112.636 20.9344C112.636 22.4826 112.312 23.6272 111.669 24.3735Z" fill="url(#paint9_linear_315_943)"/>
<path d="M128.069 28.9217C126.442 28.9217 125.03 28.5952 123.833 27.9422C122.637 27.2891 121.713 26.3688 121.06 25.1848C120.407 23.9989 120.08 22.5816 120.08 20.9347C120.08 19.2878 120.407 17.9011 121.06 16.7152C121.713 15.5294 122.637 14.6162 123.833 13.9722C125.028 13.3299 126.44 13.0088 128.069 13.0088C129.698 13.0088 131.113 13.3299 132.319 13.9722C133.524 14.6162 134.454 15.5294 135.107 16.7152C135.76 17.9011 136.086 19.3076 136.086 20.9347C136.086 22.5619 135.76 23.9989 135.107 25.1848C134.454 26.3706 133.524 27.2909 132.319 27.9422C131.113 28.5952 129.696 28.9217 128.069 28.9217ZM128.069 25.4862C129.113 25.4862 129.942 25.1148 130.555 24.3703C131.169 23.6276 131.474 22.4812 131.474 20.9329C131.474 19.3847 131.167 18.2509 130.555 17.5261C129.942 16.8031 129.113 16.4407 128.069 16.4407C127.025 16.4407 126.194 16.8031 125.582 17.5261C124.969 18.2491 124.664 19.3847 124.664 20.9329C124.664 22.4812 124.971 23.6258 125.582 24.3703C126.196 25.113 127.025 25.4862 128.069 25.4862Z" fill="url(#paint10_linear_315_943)"/>
<path d="M139.039 28.5913V17.2872C139.039 16.6449 139.019 15.9865 138.98 15.312C138.939 14.6392 138.88 13.9701 138.799 13.3081H143.169L143.501 16.1408H143.139C143.58 15.1774 144.233 14.4132 145.098 13.8499C145.961 13.2865 146.987 13.0049 148.173 13.0049C149.358 13.0049 150.316 13.2812 151.111 13.8337C151.904 14.3863 152.473 15.2456 152.814 16.4099H152.331C152.772 15.3658 153.476 14.537 154.441 13.9234C155.406 13.3117 156.5 13.0049 157.726 13.0049C159.453 13.0049 160.74 13.518 161.585 14.5424C162.43 15.5667 162.851 17.176 162.851 19.3647V28.5877H158.3V19.5154C158.3 18.4497 158.129 17.6873 157.787 17.2244C157.444 16.7633 156.891 16.5319 156.129 16.5319C155.225 16.5319 154.511 16.853 153.989 17.4953C153.467 18.1393 153.205 19.022 153.205 20.1486V28.5877H148.653V19.5154C148.653 18.4497 148.483 17.6873 148.14 17.2244C147.798 16.7633 147.245 16.5319 146.483 16.5319C145.578 16.5319 144.87 16.853 144.358 17.4953C143.845 18.1393 143.589 19.022 143.589 20.1486V28.5877H139.037L139.039 28.5913Z" fill="url(#paint11_linear_315_943)"/>
<path d="M166.048 28.591V25.6362L175.151 15.6292V16.7146H166.048V13.3096H179.25V16.293L170.027 26.3915L169.996 25.2164H179.551V28.5928H166.048V28.591Z" fill="url(#paint12_linear_315_943)"/>
<path d="M182.775 28.5917V7.33984H197.214V10.9871H187.478V16.1718H196.521V19.7885H187.478V28.5899H182.775V28.5917Z" fill="#009F0B"/>
<path d="M196.943 28.5918L204.176 19.6989V21.7189L197.334 13.3086H202.7L206.769 18.644H205.142L209.241 13.3086H214.576L207.765 21.7476V19.6684L214.998 28.59H209.602L205.14 22.8635H206.767L202.275 28.59H196.939L196.943 28.5918Z" fill="#009F0B"/>
<path d="M13.7816 23.6397L1.06923 33.0996C0.373155 30.7691 0 28.2988 0 25.7387C0 11.5247 11.5247 0 25.7387 0C36.3575 0 45.4765 6.43154 49.4071 15.6133L37.9219 26.3433L36.3503 20.2831C36.0382 19.0722 34.4666 18.7995 33.7418 19.7772L28.1535 27.3049L24.9834 21.6968C24.4094 20.6724 22.9365 20.7191 22.4036 21.7327L18.5645 29.0271L16.0187 24.1115C15.5918 23.2773 14.5064 23.0549 13.7834 23.6397H13.7816Z" fill="url(#paint13_linear_315_943)"/>
<path d="M51.4761 25.7389C51.4761 39.9564 39.9513 51.4776 25.7374 51.4776C15.1545 51.4776 6.0624 45.0891 2.1084 35.9594C2.19092 35.9199 2.26986 35.8715 2.35059 35.8176L14.1965 27.0037L17.2283 32.8701C17.754 33.9303 19.2861 33.9752 19.853 32.9024L23.7514 25.4931L26.6649 30.6509C27.1403 31.6286 28.5055 31.7757 29.1711 30.8805L34.2733 24.0059L35.6744 29.4166C35.904 30.5253 37.2729 30.9846 38.1196 30.197L50.484 18.6436C51.1334 20.9004 51.4779 23.2829 51.4779 25.7443L51.4761 25.7389Z" fill="url(#paint14_linear_315_943)"/>
</g>
<defs>
<linearGradient id="paint0_linear_315_943" x1="63.7696" y1="42.9103" x2="187.84" y2="-34.9121" gradientUnits="userSpaceOnUse">
<stop stop-color="#002349"/>
<stop offset="0.65" stop-color="#003B3D"/>
<stop offset="1" stop-color="#009F0B"/>
</linearGradient>
<linearGradient id="paint1_linear_315_943" x1="66.9051" y1="47.9104" x2="190.976" y2="-29.9122" gradientUnits="userSpaceOnUse">
<stop stop-color="#002349"/>
<stop offset="0.65" stop-color="#003B3D"/>
<stop offset="1" stop-color="#009F0B"/>
</linearGradient>
<linearGradient id="paint2_linear_315_943" x1="69.5802" y1="52.1746" x2="193.651" y2="-25.6479" gradientUnits="userSpaceOnUse">
<stop stop-color="#002349"/>
<stop offset="0.65" stop-color="#003B3D"/>
<stop offset="1" stop-color="#009F0B"/>
</linearGradient>
<linearGradient id="paint3_linear_315_943" x1="72.1276" y1="56.2348" x2="196.198" y2="-21.5859" gradientUnits="userSpaceOnUse">
<stop stop-color="#002349"/>
<stop offset="0.65" stop-color="#003B3D"/>
<stop offset="1" stop-color="#009F0B"/>
</linearGradient>
<linearGradient id="paint4_linear_315_943" x1="75.02" y1="60.8472" x2="199.09" y2="-16.9753" gradientUnits="userSpaceOnUse">
<stop stop-color="#002349"/>
<stop offset="0.65" stop-color="#003B3D"/>
<stop offset="1" stop-color="#009F0B"/>
</linearGradient>
<linearGradient id="paint5_linear_315_943" x1="78.2832" y1="66.0496" x2="202.354" y2="-11.7729" gradientUnits="userSpaceOnUse">
<stop stop-color="#002349"/>
<stop offset="0.65" stop-color="#003B3D"/>
<stop offset="1" stop-color="#009F0B"/>
</linearGradient>
<linearGradient id="paint6_linear_315_943" x1="81.5449" y1="71.2502" x2="205.615" y2="-6.57234" gradientUnits="userSpaceOnUse">
<stop stop-color="#002349"/>
<stop offset="0.65" stop-color="#003B3D"/>
<stop offset="1" stop-color="#009F0B"/>
</linearGradient>
<linearGradient id="paint7_linear_315_943" x1="52.9104" y1="25.9886" x2="176.983" y2="-51.8321" gradientUnits="userSpaceOnUse">
<stop stop-color="#002349"/>
<stop offset="0.65" stop-color="#003B3D"/>
<stop offset="1" stop-color="#009F0B"/>
</linearGradient>
<linearGradient id="paint8_linear_315_943" x1="61.7153" y1="40.0247" x2="185.786" y2="-37.7978" gradientUnits="userSpaceOnUse">
<stop stop-color="#002349"/>
<stop offset="0.65" stop-color="#003B3D"/>
<stop offset="1" stop-color="#009F0B"/>
</linearGradient>
<linearGradient id="paint9_linear_315_943" x1="66.7778" y1="48.0958" x2="190.848" y2="-29.7268" gradientUnits="userSpaceOnUse">
<stop stop-color="#002349"/>
<stop offset="0.65" stop-color="#003B3D"/>
<stop offset="1" stop-color="#009F0B"/>
</linearGradient>
<linearGradient id="paint10_linear_315_943" x1="71.8678" y1="56.2122" x2="195.94" y2="-21.6103" gradientUnits="userSpaceOnUse">
<stop stop-color="#002349"/>
<stop offset="0.65" stop-color="#003B3D"/>
<stop offset="1" stop-color="#009F0B"/>
</linearGradient>
<linearGradient id="paint11_linear_315_943" x1="78.2885" y1="66.4468" x2="202.359" y2="-11.374" gradientUnits="userSpaceOnUse">
<stop stop-color="#002349"/>
<stop offset="0.65" stop-color="#003B3D"/>
<stop offset="1" stop-color="#009F0B"/>
</linearGradient>
<linearGradient id="paint12_linear_315_943" x1="84.492" y1="76.3387" x2="208.564" y2="-1.48388" gradientUnits="userSpaceOnUse">
<stop stop-color="#002349"/>
<stop offset="0.65" stop-color="#003B3D"/>
<stop offset="1" stop-color="#009F0B"/>
</linearGradient>
<linearGradient id="paint13_linear_315_943" x1="27.4071" y1="71.2869" x2="22.3642" y2="-22.418" gradientUnits="userSpaceOnUse">
<stop stop-color="#002349"/>
<stop offset="1" stop-color="#009F0B"/>
</linearGradient>
<linearGradient id="paint14_linear_315_943" x1="28.9845" y1="71.2028" x2="23.9415" y2="-22.5022" gradientUnits="userSpaceOnUse">
<stop stop-color="#002349"/>
<stop offset="1" stop-color="#009F0B"/>
</linearGradient>
<clipPath id="clip0_315_943">
<rect width="215" height="51.4756" fill="white"/>
</clipPath>
</defs>
</svg>
